<?xml version="1.0" standalone="no"?>
<!DOCTYPE svg PUBLIC "-//W3C//DTD SVG 20010904//EN"
 "http://www.w3.org/TR/2001/REC-SVG-20010904/DTD/svg10.dtd">
<svg version="1.0" xmlns="http://www.w3.org/2000/svg"
 width="1000.000000pt" height="1000.000000pt" viewBox="0 0 1000.000000 1000.000000"
 preserveAspectRatio="xMidYMid meet">
<metadata>
Created by potrace 1.11, written by Peter Selinger 2001-2013
</metadata>
<g transform="translate(0.000000,1000.000000) scale(0.100000,-0.100000)"
fill="#000000" stroke="none">
<path d="M1388 8825 c-2 -1 -30 -5 -63 -8 -267 -26 -565 -153 -785 -336 -282
-235 -476 -580 -527 -941 -4 -30 -8 -1180 -8 -2555 l0 -2500 23 -107 c86 -402
310 -735 642 -955 191 -127 387 -201 630 -239 25 -4 1676 -8 3670 -9 2964 -2
3645 0 3728 11 561 72 1037 463 1222 1002 22 64 48 167 59 227 19 107 19 178
17 2615 -2 2352 -3 2510 -19 2580 -10 41 -20 85 -23 97 -2 12 -18 62 -35 110
-136 386 -410 692 -772 863 -94 44 -200 86 -244 95 -10 2 -47 10 -83 18 -36 9
-83 19 -105 23 -36 6 -7319 16 -7327 9z"/>
</g>
</svg>
